<svg xmlns="http://www.w3.org/2000/svg" width="98" height="20" viewBox="0 0 98 20"><defs><clipPath id="4dxra"><path fill="#fff" d="M.4 9.987A9.592 9.592 0 0 1 9.997.39c2.039 0 3.93.636 5.484 1.72a9.597 9.597 0 0 1-5.484 17.474 9.57 9.57 0 0 1-7.626-3.77A9.555 9.555 0 0 1 .4 9.987z"/></clipPath></defs><g><g><g><text dominant-baseline="text-before-edge" style="font-kerning:normal" fill="#555248" font-family="'Playfair Display','PlayfairDisplay-Regular'" font-size="12" letter-spacing="1.68" transform="translate(22 2)"><tspan style="font-kerning:normal">CONQUEST</tspan></text></g></g><g transform="rotate(151.8 10 10)"><path fill="none" stroke="#000" stroke-miterlimit="50" stroke-width="2" d="M.4 9.987A9.592 9.592 0 0 1 9.997.39c2.039 0 3.93.636 5.484 1.72a9.597 9.597 0 0 1-5.484 17.474 9.57 9.57 0 0 1-7.626-3.77A9.555 9.555 0 0 1 .4 9.987z" clip-path="url(&quot;#4dxra&quot;)"/></g></g></svg>